<?xml version="1.0" encoding="iso-8859-1"?>
<!-- Generator: Adobe Illustrator 21.1.0, SVG Export Plug-In . SVG Version: 6.00 Build 0)  -->
<svg version="1.1" id="ico" xmlns="http://www.w3.org/2000/svg" xmlns:xlink="http://www.w3.org/1999/xlink" x="0px" y="0px"
	 viewBox="0 0 64 64" style="enable-background:new 0 0 64 64;" xml:space="preserve">
<g>
	<path d="M54.627,9.373C48.583,3.329,40.548,0,32,0S15.417,3.329,9.372,9.373C3.329,15.417,0,23.452,0,32s3.329,16.583,9.373,22.628
		C15.417,60.672,23.452,64,32,64s16.583-3.328,22.627-9.373C60.672,48.583,64,40.548,64,32S60.672,15.417,54.627,9.373z M32,60
		C16.561,60,4,47.439,4,32S16.561,4,32,4s28,12.561,28,28S47.439,60,32,60z"/>
	<path d="M46.474,36.307c-0.949-0.415-2.054,0.018-2.469,0.967c-2.1,4.807-6.846,7.913-12.091,7.913
		c-7.272,0-13.188-5.916-13.188-13.188s5.916-13.188,13.188-13.188c5.214,0,9.949,3.081,12.063,7.85
		c0.42,0.947,1.527,1.374,2.474,0.955c0.947-0.42,1.374-1.527,0.954-2.474c-2.714-6.123-8.795-10.08-15.491-10.08
		c-9.339,0-16.938,7.598-16.938,16.938s7.598,16.938,16.938,16.938c6.735,0,12.83-3.989,15.527-10.161
		C47.856,37.827,47.423,36.722,46.474,36.307z"/>
</g>
<g>
</g>
<g>
</g>
<g>
</g>
<g>
</g>
<g>
</g>
<g>
</g>
</svg>
