<?xml version="1.0" encoding="iso-8859-1"?>
<!-- Generator: Adobe Illustrator 21.1.0, SVG Export Plug-In . SVG Version: 6.00 Build 0)  -->
<svg version="1.1" id="ico" xmlns="http://www.w3.org/2000/svg" xmlns:xlink="http://www.w3.org/1999/xlink" x="0px" y="0px"
	 viewBox="0 0 64 64" style="enable-background:new 0 0 64 64;" xml:space="preserve">
<path id="c" d="M54.628,9.373C48.583,3.329,40.548,0,32,0C23.452,0,15.417,3.329,9.372,9.373C3.329,15.417,0,23.453,0,32
	c0,8.548,3.329,16.584,9.373,22.628C15.417,60.672,23.452,64,32,64c8.547,0,16.583-3.329,22.627-9.373
	C60.672,48.583,64,40.548,64,32C64,23.453,60.672,15.417,54.628,9.373z M47.442,38.776c-2.697,6.173-8.792,10.161-15.527,10.161
	c-9.34,0-16.938-7.598-16.938-16.938s7.598-16.938,16.938-16.938c6.697,0,12.777,3.957,15.491,10.08
	c0.42,0.947-0.008,2.054-0.955,2.474c-0.947,0.42-2.054-0.008-2.474-0.955c-2.113-4.768-6.848-7.85-12.063-7.85
	c-7.272,0-13.188,5.916-13.188,13.188c0,7.272,5.916,13.188,13.188,13.188c5.245,0,9.991-3.106,12.091-7.913
	c0.415-0.949,1.52-1.382,2.469-0.967C47.423,36.722,47.856,37.827,47.442,38.776z"/>
<g>
</g>
<g>
</g>
<g>
</g>
<g>
</g>
<g>
</g>
<g>
</g>
</svg>
