<?xml version="1.0" encoding="iso-8859-1"?>
<!-- Generator: Adobe Illustrator 21.1.0, SVG Export Plug-In . SVG Version: 6.00 Build 0)  -->
<svg version="1.1" id="ico" xmlns="http://www.w3.org/2000/svg" xmlns:xlink="http://www.w3.org/1999/xlink" x="0px" y="0px"
	 viewBox="0 0 64 64" style="enable-background:new 0 0 64 64;" xml:space="preserve">
<g>
	<path d="M32,0C14.327,0,0,14.327,0,32s14.327,32,32,32s32-14.327,32-32S49.673,0,32,0z M32,60C16.561,60,4,47.439,4,32
		S16.561,4,32,4s28,12.561,28,28S47.439,60,32,60z"/>
	<path d="M45.565,15.13L34.256,26.439c-2.166-0.878-4.742-0.438-6.499,1.319c-2.343,2.343-2.343,6.142,0,8.485
		c2.343,2.343,6.142,2.343,8.485,0c1.932-1.932,2.245-4.844,0.99-7.124l11.16-11.16c0.781-0.781,0.781-2.047,0-2.828
		C47.612,14.349,46.346,14.349,45.565,15.13z"/>
</g>
<g>
</g>
<g>
</g>
<g>
</g>
<g>
</g>
<g>
</g>
<g>
</g>
</svg>
