<?xml version="1.0" encoding="iso-8859-1"?>
<!-- Generator: Adobe Illustrator 21.1.0, SVG Export Plug-In . SVG Version: 6.00 Build 0)  -->
<svg version="1.1" id="ico" xmlns="http://www.w3.org/2000/svg" xmlns:xlink="http://www.w3.org/1999/xlink" x="0px" y="0px"
	 viewBox="0 0 64 64" style="enable-background:new 0 0 64 64;" xml:space="preserve">
<g>
	<path d="M32,0C14.33,0,0,14.33,0,32c0,17.67,14.33,32,32,32s32-14.33,32-32C64,14.33,49.67,0,32,0z M48.39,17.96L37.23,29.12
		c1.26,2.28,0.94,5.19-0.99,7.12c-2.34,2.35-6.14,2.35-8.48,0c-2.35-2.34-2.35-6.14,0-8.48c1.75-1.76,4.33-2.2,6.5-1.32l11.3-11.31
		c0.79-0.78,2.05-0.78,2.83,0C49.17,15.91,49.17,17.18,48.39,17.96z"/>
</g>
<g>
</g>
<g>
</g>
<g>
</g>
<g>
</g>
<g>
</g>
<g>
</g>
</svg>
