<?xml version="1.0" encoding="iso-8859-1"?>
<!-- Generator: Adobe Illustrator 21.1.0, SVG Export Plug-In . SVG Version: 6.00 Build 0)  -->
<svg version="1.1" id="Layer_1" xmlns="http://www.w3.org/2000/svg" xmlns:xlink="http://www.w3.org/1999/xlink" x="0px" y="0px"
	 viewBox="0 0 64 64" style="enable-background:new 0 0 64 64;" xml:space="preserve">
<path d="M52.71,24h-0.44v-3.73C52.27,9.12,43.15,0,32,0S11.73,9.12,11.73,20.27V24h-0.436C6.732,24,3,27.732,3,32.294v23.412
	C3,60.268,6.732,64,11.294,64H52.71c4.56,0,8.29-3.731,8.29-8.29V32.29C61,27.73,57.27,24,52.71,24z M15.73,20.27
	C15.73,11.3,23.03,4,32,4s16.27,7.3,16.27,16.27V24H15.73V20.27z M57,55.71c0,2.366-1.924,4.29-4.29,4.29H11.294
	C8.926,60,7,58.074,7,55.706V32.294C7,29.926,8.926,28,11.294,28H52.71c2.365,0,4.29,1.924,4.29,4.29V55.71z"/>
<path d="M37.5,43.521c0-3.038-2.462-5.5-5.5-5.5s-5.5,2.462-5.5,5.5c0,2.524,1.703,4.646,4.021,5.293
	c-0.01,0.068-0.021,0.136-0.021,0.207v4.164c0,0.828,0.671,1.5,1.5,1.5s1.5-0.672,1.5-1.5v-4.164c0-0.071-0.011-0.139-0.021-0.207
	C35.797,48.167,37.5,46.045,37.5,43.521z M32,46.021c-1.378,0-2.5-1.122-2.5-2.5s1.122-2.5,2.5-2.5s2.5,1.122,2.5,2.5
	S33.378,46.021,32,46.021z"/>
<g>
</g>
<g>
</g>
<g>
</g>
<g>
</g>
<g>
</g>
<g>
</g>
</svg>
