<?xml version="1.0" encoding="iso-8859-1"?>
<!-- Generator: Adobe Illustrator 21.1.0, SVG Export Plug-In . SVG Version: 6.00 Build 0)  -->
<svg version="1.1" id="Layer_1" xmlns="http://www.w3.org/2000/svg" xmlns:xlink="http://www.w3.org/1999/xlink" x="0px" y="0px"
	 viewBox="0 0 64 64" style="enable-background:new 0 0 64 64;" xml:space="preserve">
<path d="M52.71,24h-0.44v-3.73C52.27,9.12,43.15,0,32,0S11.73,9.12,11.73,20.27V24h-0.44C6.73,24,3,27.73,3,32.29v23.42
	C3,60.27,6.73,64,11.29,64h41.42c4.56,0,8.29-3.73,8.29-8.29V32.29C61,27.73,57.27,24,52.71,24z M34,46.66v5.73c0,1.1-0.9,2-2,2
	s-2-0.9-2-2v-5.73c-1.19-0.7-2-1.97-2-3.45c0-2.21,1.79-4,4-4s4,1.79,4,4C36,44.69,35.19,45.96,34,46.66z M48.27,24H15.73v-3.73
	C15.73,11.3,23.03,4,32,4s16.27,7.3,16.27,16.27V24z"/>
<g>
</g>
<g>
</g>
<g>
</g>
<g>
</g>
<g>
</g>
<g>
</g>
</svg>
