<?xml version="1.0" encoding="iso-8859-1"?>
<!-- Generator: Adobe Illustrator 21.1.0, SVG Export Plug-In . SVG Version: 6.00 Build 0)  -->
<svg version="1.1" id="Layer_1" xmlns="http://www.w3.org/2000/svg" xmlns:xlink="http://www.w3.org/1999/xlink" x="0px" y="0px"
	 viewBox="0 0 64 64" style="enable-background:new 0 0 64 64;" xml:space="preserve">
<g>
	<path d="M61.588,10.5H2.412C1.08,10.5,0,11.58,0,12.912v38.177C0,52.42,1.08,53.5,2.412,53.5h59.177C62.92,53.5,64,52.42,64,51.088
		V12.912C64,11.58,62.92,10.5,61.588,10.5z M55.103,14.5L31.741,26.257L8.791,14.5H55.103z M4,49.5V16.541l26.822,13.74
		c0.286,0.146,0.599,0.22,0.912,0.22c0.308,0,0.616-0.071,0.899-0.214L60,16.514V49.5H4z"/>
	<path d="M57.669,37.948l-0.877-0.168c-0.516-0.098-0.939-0.45-1.13-0.94c-0.193-0.488-0.122-1.033,0.19-1.457l0.55-0.751
		c0.082-0.111,0.07-0.265-0.029-0.364l-1.188-1.189c-0.096-0.094-0.245-0.108-0.356-0.033l-0.739,0.499
		c-0.256,0.174-0.548,0.264-0.851,0.264c-0.759,0-1.394-0.543-1.51-1.293l-0.141-0.921c-0.02-0.136-0.138-0.237-0.278-0.237h-1.68
		c-0.134,0-0.25,0.096-0.277,0.227l-0.217,1.133c-0.137,0.717-0.769,1.237-1.501,1.237c-0.301,0-0.595-0.09-0.85-0.263l-0.955-0.647
		c-0.111-0.075-0.26-0.061-0.354,0.034l-1.189,1.188c-0.099,0.098-0.11,0.253-0.029,0.364l0.55,0.751
		c0.312,0.424,0.382,0.969,0.19,1.458c-0.192,0.489-0.614,0.84-1.13,0.939l-0.877,0.17c-0.131,0.025-0.227,0.141-0.227,0.275v1.68
		c0,0.138,0.101,0.256,0.238,0.278l0.919,0.141c0.52,0.081,0.955,0.414,1.164,0.897c0.21,0.482,0.16,1.029-0.134,1.464l-0.501,0.739
		c-0.075,0.111-0.061,0.26,0.034,0.356l1.188,1.189c0.098,0.097,0.253,0.11,0.364,0.028l0.751-0.55
		c0.264-0.194,0.575-0.297,0.896-0.297c0.732,0,1.363,0.52,1.501,1.237l0.168,0.877c0.026,0.131,0.143,0.227,0.277,0.227h1.68
		c0.14,0,0.256-0.101,0.278-0.237l0.099-0.647c0.131-0.85,0.86-1.294,1.513-1.294c0.32,0,0.629,0.103,0.895,0.297l0.528,0.387
		c0.112,0.082,0.265,0.07,0.364-0.029l1.189-1.188c0.095-0.096,0.108-0.245,0.033-0.356l-0.499-0.739
		c-0.296-0.435-0.346-0.982-0.136-1.465c0.209-0.482,0.646-0.817,1.165-0.896l0.92-0.141c0.135-0.022,0.237-0.139,0.237-0.278v-1.68
		C57.896,38.091,57.802,37.974,57.669,37.948z M50.471,43.335c-2.354,0-4.27-1.916-4.27-4.27c0-2.354,1.916-4.27,4.27-4.27
		c2.355,0,4.27,1.916,4.27,4.27C54.741,41.419,52.826,43.335,50.471,43.335z"/>
</g>
<g>
</g>
<g>
</g>
<g>
</g>
<g>
</g>
<g>
</g>
<g>
</g>
</svg>
