<?xml version="1.0" encoding="iso-8859-1"?>
<!-- Generator: Adobe Illustrator 21.1.0, SVG Export Plug-In . SVG Version: 6.00 Build 0)  -->
<svg version="1.1" id="Layer_1" xmlns="http://www.w3.org/2000/svg" xmlns:xlink="http://www.w3.org/1999/xlink" x="0px" y="0px"
	 viewBox="0 0 64 64" style="enable-background:new 0 0 64 64;" xml:space="preserve">
<path d="M32,0C21,0,12,9,12,20v24c0,11,9,20,20,20c5.5,0,10.5-2.25,14.12-5.88C49.75,54.5,52,49.5,52,44V20C52,9,43,0,32,0z
	 M34,25.68c0,1.08-0.9,1.96-2,1.96s-2-0.88-2-1.96V13.6c0-1.08,0.9-1.96,2-1.96s2,0.88,2,1.96V25.68z"/>
<g>
</g>
<g>
</g>
<g>
</g>
<g>
</g>
<g>
</g>
<g>
</g>
</svg>
