<?xml version="1.0" encoding="iso-8859-1"?>
<!-- Generator: Adobe Illustrator 21.1.0, SVG Export Plug-In . SVG Version: 6.00 Build 0)  -->
<svg version="1.1" id="Layer_1" xmlns="http://www.w3.org/2000/svg" xmlns:xlink="http://www.w3.org/1999/xlink" x="0px" y="0px"
	 viewBox="0 0 64 64" style="enable-background:new 0 0 64 64;" xml:space="preserve">
<path d="M32,4c8.822,0,16,7.178,16,16v24c0,8.822-7.178,16-16,16c-8.822,0-16-7.178-16-16V20C16,11.178,23.178,4,32,4 M32,0L32,0
	C21,0,12,9,12,20v24c0,11,9,20,20,20h0c11,0,20-9,20-20V20C52,9,43,0,32,0L32,0z"/>
<path d="M32.039,13.124c1.084,0,2,0.916,2,2v10c0,1.084-0.916,2-2,2s-2-0.916-2-2v-10C30.039,14.039,30.954,13.124,32.039,13.124
	 M32.039,10.124L32.039,10.124c-2.75,0-5,2.25-5,5v10c0,2.75,2.25,5,5,5h0c2.75,0,5-2.25,5-5v-10
	C37.039,12.374,34.789,10.124,32.039,10.124L32.039,10.124z"/>
<g>
</g>
<g>
</g>
<g>
</g>
<g>
</g>
<g>
</g>
<g>
</g>
</svg>
