<?xml version="1.0" encoding="iso-8859-1"?>
<!-- Generator: Adobe Illustrator 21.1.0, SVG Export Plug-In . SVG Version: 6.00 Build 0)  -->
<svg version="1.1" id="Layer_1" xmlns="http://www.w3.org/2000/svg" xmlns:xlink="http://www.w3.org/1999/xlink" x="0px" y="0px"
	 viewBox="0 0 64 64" style="enable-background:new 0 0 64 64;" xml:space="preserve">
<path d="M32,0C21,0,12,9,12,20v24c0,11,9,20,20,20c5.5,0,10.5-2.25,14.12-5.88C49.75,54.5,52,49.5,52,44V20C52,9,43,0,32,0z
	 M37.04,25.12c0,1.38-0.56,2.62-1.47,3.53c-0.91,0.91-2.15,1.47-3.53,1.47c-2.75,0-5-2.25-5-5v-10c0-2.75,2.25-5,5-5s5,2.25,5,5
	V25.12z M32.04,13.12c-1.09,0-2,0.92-2,2v10c0,1.09,0.91,2,2,2c1.08,0,2-0.91,2-2v-10C34.04,14.04,33.12,13.12,32.04,13.12z"/>
<g>
</g>
<g>
</g>
<g>
</g>
<g>
</g>
<g>
</g>
<g>
</g>
</svg>
