<?xml version="1.0" encoding="iso-8859-1"?>
<!-- Generator: Adobe Illustrator 21.1.0, SVG Export Plug-In . SVG Version: 6.00 Build 0)  -->
<svg version="1.1" id="Layer_1" xmlns="http://www.w3.org/2000/svg" xmlns:xlink="http://www.w3.org/1999/xlink" x="0px" y="0px"
	 viewBox="0 0 64 64" style="enable-background:new 0 0 64 64;" xml:space="preserve">
<path d="M32,4c8.822,0,16,7.178,16,16v24c0,8.822-7.178,16-16,16c-8.822,0-16-7.178-16-16V20C16,11.178,23.178,4,32,4 M32,0L32,0
	C21,0,12,9,12,20v24c0,11,9,20,20,20h0c11,0,20-9,20-20V20C52,9,43,0,32,0L32,0z"/>
<path d="M32,27.639c-1.104,0-2-0.879-2-1.963V13.602c0-1.084,0.896-1.963,2-1.963s2,0.879,2,1.963v12.074
	C34,26.76,33.104,27.639,32,27.639z"/>
<g>
</g>
<g>
</g>
<g>
</g>
<g>
</g>
<g>
</g>
<g>
</g>
</svg>
