<?xml version="1.0" encoding="iso-8859-1"?>
<!-- Generator: Adobe Illustrator 21.1.0, SVG Export Plug-In . SVG Version: 6.00 Build 0)  -->
<svg version="1.1" id="Layer_1" xmlns="http://www.w3.org/2000/svg" xmlns:xlink="http://www.w3.org/1999/xlink" x="0px" y="0px"
	 viewBox="0 0 64 64" style="enable-background:new 0 0 64 64;" xml:space="preserve">
<path d="M63.409,60.562L42.7,39.885c3.603-4.224,5.782-9.697,5.782-15.681C48.482,10.837,37.629,0,24.241,0
	C10.853,0,0,10.837,0,24.204c0,13.368,10.853,24.204,24.241,24.204c5.943,0,11.384-2.139,15.6-5.683L60.557,63.41
	c0.394,0.393,0.91,0.59,1.426,0.59s1.032-0.197,1.426-0.59C64.197,62.623,64.197,61.349,63.409,60.562z M4.034,24.204
	c0-11.126,9.065-20.177,20.208-20.177c11.143,0,20.208,9.051,20.208,20.177c0,11.126-9.065,20.177-20.208,20.177
	C13.099,44.381,4.034,35.33,4.034,24.204z"/>
<g>
</g>
<g>
</g>
<g>
</g>
<g>
</g>
<g>
</g>
<g>
</g>
</svg>
