<?xml version="1.0" encoding="iso-8859-1"?>
<!-- Generator: Adobe Illustrator 21.1.0, SVG Export Plug-In . SVG Version: 6.00 Build 0)  -->
<svg version="1.1" id="Layer_1" xmlns="http://www.w3.org/2000/svg" xmlns:xlink="http://www.w3.org/1999/xlink" x="0px" y="0px"
	 viewBox="0 0 64 64" style="enable-background:new 0 0 64 64;" xml:space="preserve">
<g>
	<path d="M57.892,15.755c0-4.037-3.272-7.309-7.309-7.309h-9.797C40.595,3.747,36.742,0,31.995,0c-4.737,0-8.59,3.747-8.782,8.446
		h-9.797c-4.037,0-7.309,3.272-7.309,7.309c0,3.169,2.021,5.859,4.841,6.873c-0.021,0.166-0.05,0.329-0.05,0.501V60
		c0,2.209,1.791,4,4,4h34.202c2.209,0,4-1.791,4-4V23.129c0-0.172-0.03-0.335-0.05-0.501C55.871,21.615,57.892,18.925,57.892,15.755
		z M31.995,4c2.526,0,4.583,1.968,4.773,4.446h-9.536C27.421,5.968,29.469,4,31.995,4z M49.101,60H14.899V23.129h34.202V60z
		 M50.583,19.064H13.417c-1.825,0-3.309-1.484-3.309-3.309c0-1.825,1.484-3.309,3.309-3.309h37.166c1.825,0,3.309,1.484,3.309,3.309
		C53.892,17.58,52.408,19.064,50.583,19.064z"/>
	<rect x="19.977" y="30" width="4" height="23.25"/>
	<rect x="30.017" y="30" width="4" height="23.25"/>
	<rect x="40.058" y="30" width="4" height="23.25"/>
</g>
<g>
</g>
<g>
</g>
<g>
</g>
<g>
</g>
<g>
</g>
<g>
</g>
</svg>
